<svg width="38" height="36" viewBox="0 0 38 36" fill="none" xmlns="http://www.w3.org/2000/svg">
<path d="M5.77692 19.3266C2.97044 18.2337 1 15.6646 1 12.6697C1 9.36519 3.6 6.3125 7.5 5.72222C8.72336 3.00543 11.6187 1 14.9956 1C19.3214 1 22.857 4.13353 23.1 8.08333C24.7442 8.75481 26.0338 10.1257 26.6332 11.765M5.77692 19.3266C4.01856 21.0105 3 23.2638 3 25.6151C3 30.7982 7.5667 35 13.2 35H28.5C33.1944 35 37 31.4638 37 27.1016C37 23.8629 34.902 20.8715 31.9 19.6528C31.6914 16.2821 29.627 13.369 26.6332 11.765M5.77692 19.3266C7.23114 17.9341 9.1914 16.9307 11.5 16.5833C13.0998 13.0515 16.886 10.4444 21.302 10.4444C23.2454 10.4444 25.0666 10.9256 26.6332 11.765" stroke="black" stroke-width="2" stroke-linecap="round" stroke-linejoin="round"/>
</svg>
