<svg width="31" height="72" viewBox="0 0 31 72" fill="none" xmlns="http://www.w3.org/2000/svg">
<path d="M23.8967 43.433V8.61054C23.8967 3.86265 20.0339 0 15.286 0C10.5382 0 6.6755 3.86265 6.6755 8.61054V43.4336C2.37161 46.3746 -0.168126 51.3532 0.00866198 56.5902C0.273278 64.4417 6.62196 70.915 14.4619 71.3277C14.7411 71.3424 15.0193 71.3497 15.2964 71.3497C19.231 71.3497 22.9358 69.877 25.8058 67.154C28.8798 64.2375 30.5726 60.2987 30.5726 56.063C30.5725 50.9608 28.09 46.2892 23.8967 43.433ZM24.136 65.3937C21.5518 67.8458 18.1616 69.0936 14.5896 68.9047C7.99583 68.5578 2.65628 63.1126 2.43356 56.5083C2.27844 51.9089 4.61357 47.5462 8.52749 45.1224C8.88463 44.9013 9.10185 44.5112 9.10185 44.0911V8.61054C9.10169 5.20045 11.8761 2.42619 15.2862 2.42619C18.6963 2.42619 21.4706 5.20045 21.4706 8.61054V44.0909C21.4706 44.511 21.6879 44.9011 22.0451 45.1222C25.8655 47.4881 28.1465 51.578 28.1465 56.0627C28.1463 59.6263 26.7221 62.94 24.136 65.3937Z" fill="black"/>
<path d="M26.0021 52.645C25.7995 52.0065 25.1175 51.6529 24.479 51.8555C23.8404 52.058 23.4868 52.74 23.6893 53.3787C23.9632 54.2421 24.1021 55.1451 24.1021 56.0629C24.1021 58.4181 23.185 60.6322 21.5198 62.2974C19.7419 64.0756 17.34 65.0013 14.8011 64.8665C10.2843 64.6289 6.62659 60.8976 6.47407 56.372C6.36764 53.2165 7.96989 50.2232 10.6554 48.5603L12.5701 47.3745C12.9272 47.1534 13.1446 46.7633 13.1446 46.3432V10.5135H17.4262V46.3432C17.4262 46.7633 17.6436 47.1534 18.0006 47.3745L19.9153 48.5603C20.4851 48.9131 21.2327 48.7372 21.5853 48.1676C21.9383 47.5981 21.7624 46.8503 21.1928 46.4975L19.8524 45.6675V9.30037C19.8524 8.63042 19.3094 8.08728 18.6393 8.08728H11.9315C11.2616 8.08728 10.7184 8.63042 10.7184 9.30037V45.6676L9.37805 46.4975C5.95551 48.6169 3.91363 52.4318 4.04934 56.4537C4.24392 62.2265 8.91077 66.9862 14.6739 67.2893C14.8777 67.3 15.0836 67.3055 15.2865 67.3055C18.2893 67.3055 21.1126 66.1362 23.2356 64.0128C25.359 61.8893 26.5283 59.0658 26.5283 56.0627C26.5281 54.8959 26.3512 53.746 26.0021 52.645Z" fill="black"/>
<path d="M23.1295 51.0161C23.4509 51.0161 23.7571 50.8846 23.9868 50.6619C24.4327 50.2023 24.4597 49.4682 24.0274 48.9891C23.6541 48.5753 23.0223 48.4736 22.5362 48.7455C22.0473 49.0192 21.8071 49.6128 21.9674 50.1498C22.1194 50.659 22.5972 51.0161 23.1295 51.0161Z" fill="black"/>
</svg>
