<svg width="38" height="38" viewBox="0 0 38 38" fill="none" xmlns="http://www.w3.org/2000/svg">
<g clip-path="url(#clip0_535_158)">
<path d="M3.13407 17.691H4.40336C4.73193 17.691 4.99837 17.4246 4.99837 17.096C4.99837 16.7673 4.732 16.501 4.40336 16.501H3.13407C2.80551 16.501 2.53906 16.7673 2.53906 17.096C2.53906 17.4246 2.80551 17.691 3.13407 17.691Z" fill="black"/>
<path d="M5.67177 21.5783H4.40263C4.07406 21.5783 3.80762 21.8447 3.80762 22.1733C3.80762 22.5019 4.07399 22.7683 4.40263 22.7683H5.67177C6.00034 22.7683 6.26678 22.502 6.26678 22.1733C6.26671 21.8447 6.00034 21.5783 5.67177 21.5783Z" fill="black"/>
<path d="M12.0188 15.1524H21.5386C21.8671 15.1524 22.1336 14.8861 22.1336 14.5574C22.1336 14.2288 21.8672 13.9624 21.5386 13.9624H12.0188C11.6903 13.9624 11.4238 14.2288 11.4238 14.5574C11.4238 14.8861 11.6903 15.1524 12.0188 15.1524Z" fill="black"/>
<path d="M6.94169 15.1524H9.48042C9.80898 15.1524 10.0754 14.8861 10.0754 14.5574C10.0754 14.2288 9.80906 13.9624 9.48042 13.9624H6.94169C6.61312 13.9624 6.34668 14.2288 6.34668 14.5574C6.34668 14.8861 6.61312 15.1524 6.94169 15.1524Z" fill="black"/>
<path d="M33.5574 12.6535C33.5574 8.47596 30.1588 5.07733 25.9812 5.07733C24.0777 5.07733 22.2578 5.78619 20.8569 7.07315C19.4647 8.35223 18.6049 10.0897 18.4359 11.9656C18.4064 12.2928 18.6478 12.582 18.9751 12.6116C19.3024 12.6406 19.5916 12.3997 19.6211 12.0724C19.7636 10.492 20.4883 9.02785 21.662 7.94952C22.8427 6.86474 24.3766 6.26735 25.9812 6.26735C29.5026 6.26735 32.3675 9.1322 32.3675 12.6536C32.3675 16.175 29.5026 19.0398 25.9812 19.0398H0.595012C0.266445 19.0398 0 19.3062 0 19.6348C0 19.9634 0.266371 20.2298 0.595012 20.2298H25.9812C30.1587 20.2297 33.5574 16.831 33.5574 12.6535Z" fill="black"/>
<path d="M6.94169 17.691H25.9813C28.759 17.691 31.0189 15.4311 31.0189 12.6534C31.0189 9.87567 28.7591 7.61578 25.9813 7.61578C25.6528 7.61578 25.3863 7.88215 25.3863 8.2108C25.3863 8.53936 25.6527 8.80581 25.9813 8.80581C28.1029 8.80581 29.8289 10.5318 29.8289 12.6534C29.8289 14.7749 28.1029 16.501 25.9813 16.501H6.94169C6.61312 16.501 6.34668 16.7673 6.34668 17.096C6.34668 17.4246 6.61305 17.691 6.94169 17.691Z" fill="black"/>
<path d="M25.3469 21.5783H8.21122C7.88266 21.5783 7.61621 21.8447 7.61621 22.1733C7.61621 22.5019 7.88258 22.7683 8.21122 22.7683H25.3469C27.8184 22.7683 29.8291 24.7791 29.8291 27.2506C29.8291 29.722 27.8184 31.7328 25.3469 31.7328C22.8754 31.7328 20.8647 29.722 20.8647 27.2506C20.8647 26.922 20.5983 26.6555 20.2697 26.6555C19.9411 26.6555 19.6747 26.9219 19.6747 27.2506C19.6747 30.3782 22.2193 32.9228 25.3469 32.9228C28.4746 32.9228 31.0192 30.3782 31.0192 27.2506C31.0192 24.1229 28.4746 21.5783 25.3469 21.5783Z" fill="black"/>
<path d="M27.2903 27.2505C27.2903 28.3222 26.4184 29.1942 25.3467 29.1942C25.0181 29.1942 24.7517 29.4605 24.7517 29.7892C24.7517 30.1177 25.018 30.3842 25.3467 30.3842C27.0746 30.3842 28.4803 28.9784 28.4803 27.2506C28.4803 25.5227 27.0745 24.117 25.3467 24.117H6.94169C6.61312 24.117 6.34668 24.3834 6.34668 24.712C6.34668 25.0406 6.61305 25.307 6.94169 25.307H25.3467C26.4184 25.3069 27.2903 26.1788 27.2903 27.2505Z" fill="black"/>
<path d="M37.4054 21.5783H31.0589C30.7303 21.5783 30.4639 21.8447 30.4639 22.1733C30.4639 22.5019 30.7302 22.7683 31.0589 22.7683H37.4054C37.734 22.7683 38.0004 22.502 38.0004 22.1733C38.0004 21.8447 37.734 21.5783 37.4054 21.5783Z" fill="black"/>
<path d="M31.7324 19.6346C31.7324 19.9632 31.9988 20.2296 32.3274 20.2296H36.1354C36.4639 20.2296 36.7304 19.9633 36.7304 19.6346C36.7304 19.3061 36.464 19.0396 36.1354 19.0396H32.3274C31.9989 19.0396 31.7324 19.3061 31.7324 19.6346Z" fill="black"/>
</g>
<defs>
<clipPath id="clip0_535_158">
<rect width="38" height="38" fill="white"/>
</clipPath>
</defs>
</svg>
